# xmcd
#
# Track frame offsets:
#	150
#	10362
#	17369
#	26759
#	36124
#	44542
#	53747
#	62787
#	72521
#	82245
#	91333
#	101660
#	109988
#	121499
#	137613
#	148932
#	162944
#	173852
#	185596
#	199447
#	211064
#	222150
#	233835
#	242885
#	251738
#	263364
#
# Disc length: 3676 seconds
#
# Revision: 1
# Processed by: cddbd v1.5.2PL0 Copyright (c) Steve Scherf et al.
# Submitted via: audiograbber 1.83.01
#
DISCID=820e5a1a
DTITLE=ZÉ PIATÃ - O MELHOR DO FORRÓ
DYEAR=1900
DGENRE=
TTITLE0=FOORÓ NA FAZENDINHA
TTITLE1=FORRÓ DO ZÉ DO FOLE
TTITLE2=ARRASTA PÉ NO BREJO
TTITLE3=ALEGRIA DO SERTÃO
TTITLE4=CAVALO MANCO
TTITLE5=FORRÓ ALEGRE
TTITLE6=O SANFONEIRO SÓ TOCAVA ISSO
TTITLE7=NÃO PISE NO MEU CALO
TTITLE8=FORRÓ EM GOIÂNIA
TTITLE9=DANÇANDO MAZURCA
TTITLE10=FORRÓ SEM BRIGA
TTITLE11=FIM DE FESTA
TTITLE12=FORRÓ NO TREMEMBÉ-TRIO NORDESTINO
TTITLE13=ASA BRANCA-HÉLIO REIS
TTITLE14=MEU LIMÃO, MEU LIMOEIRO-FRANCISCO BARRETO
TTITLE15=ASSUM PRETO-SEVERINA
TTITLE16=XAXADINHO DAS ALAGOAS-MANOEL DAVID
TTITLE17=CONSEQUÊNCIA DA BEBIDA-ARY LOBO
TTITLE18=SUPLICA DE CEARENSE-GUARACY DO PANDEIRO
TTITLE19=TUDO É BAIANO-ALOISIO GOMES
TTITLE20=AI, AI, UI, UI-MANE BAIÃO
TTITLE21=VATAPÁ DA YAYA-TITULARES DO RITMO
TTITLE22=O CONTO DO BAÚ-TRIO CEARENSE
TTITLE23=MATA SETE-ZITO BORBOREMA
TTITLE24=NOVO LAMPIÃO-ZÉ NILTON E OS CAÇULAS DO BAIÃO
TTITLE25=CHAPÉU DE FOGO-CIÇO DO PARÁ
EXTD=
EXTT0=
EXTT1=
EXTT2=
EXTT3=
EXTT4=
EXTT5=
EXTT6=
EXTT7=
EXTT8=
EXTT9=
EXTT10=
EXTT11=
EXTT12=
EXTT13=
EXTT14=
EXTT15=
EXTT16=
EXTT17=
EXTT18=
EXTT19=
EXTT20=
EXTT21=
EXTT22=
EXTT23=
EXTT24=
EXTT25=
PLAYORDER=
